<svg width="683" height="683" viewBox="0 0 683 683" fill="none" xmlns="http://www.w3.org/2000/svg">
<mask id="path-1-inside-1_0_1">
<path d="M276.4 113.067C268.8 115.733 261.067 121.2 257.867 126.133L255.733 129.333H155.467C42.4 129.333 49.2 128.8 39.6 140C32.2667 148.667 31.7333 153.2 32.2667 202.667C32.6667 244.4 32.8 246.133 35.6 251.6C39.2 258.267 47.0667 264.933 53.3333 266.667C56.1333 267.467 96.9333 268 157.067 268C226.133 268 256 268.4 256 269.467C256 271.6 254.4 274.267 236.267 303.333C185.067 385.333 136 451.333 93.2 495.333C83.2 505.6 74 515.867 72.8 518.267C68 527.733 71.6 543.2 80.1333 549.733C85.6 553.867 86.2667 554 131.333 563.6C183.2 574.533 190.933 574 208.133 557.6C241.6 526.133 300.933 449.333 334 394.933C337.6 388.933 341.067 384 341.467 384C341.867 384 345.467 389.2 349.333 395.6C379.333 445.067 423.733 503.467 465.067 547.867C476.533 560.133 480.8 563.867 487.333 566.8C501.467 573.467 505.067 573.2 551.333 563.6C595.867 554.133 599.067 553.333 603.733 548.933C611.6 541.6 614.4 527.333 609.867 518.267C608.667 515.867 599.6 505.733 589.867 495.733C559.2 464.133 524.933 421.067 490.667 370.933C464.267 332.267 426.667 272.8 426.667 269.467C426.667 268.4 452.267 268 527.067 268C621.2 268 627.6 267.733 632.667 265.467C639.467 262.4 647.467 253.6 649.2 247.067C651.2 240.267 651.2 157.067 649.2 150.267C647.467 143.733 639.467 134.933 632.667 131.867C627.6 129.6 621.2 129.333 527.6 129.333H428L423.2 124C420.533 121.067 415.067 117.067 410.933 115.067L403.333 111.333L343.333 111.067C288.4 110.667 282.8 110.933 276.4 113.067Z"/>
</mask>
<path d="M276.4 113.067C268.8 115.733 261.067 121.2 257.867 126.133L255.733 129.333H155.467C42.4 129.333 49.2 128.8 39.6 140C32.2667 148.667 31.7333 153.2 32.2667 202.667C32.6667 244.4 32.8 246.133 35.6 251.6C39.2 258.267 47.0667 264.933 53.3333 266.667C56.1333 267.467 96.9333 268 157.067 268C226.133 268 256 268.4 256 269.467C256 271.6 254.4 274.267 236.267 303.333C185.067 385.333 136 451.333 93.2 495.333C83.2 505.6 74 515.867 72.8 518.267C68 527.733 71.6 543.2 80.1333 549.733C85.6 553.867 86.2667 554 131.333 563.6C183.2 574.533 190.933 574 208.133 557.6C241.6 526.133 300.933 449.333 334 394.933C337.6 388.933 341.067 384 341.467 384C341.867 384 345.467 389.2 349.333 395.6C379.333 445.067 423.733 503.467 465.067 547.867C476.533 560.133 480.8 563.867 487.333 566.8C501.467 573.467 505.067 573.2 551.333 563.6C595.867 554.133 599.067 553.333 603.733 548.933C611.6 541.6 614.4 527.333 609.867 518.267C608.667 515.867 599.6 505.733 589.867 495.733C559.2 464.133 524.933 421.067 490.667 370.933C464.267 332.267 426.667 272.8 426.667 269.467C426.667 268.4 452.267 268 527.067 268C621.2 268 627.6 267.733 632.667 265.467C639.467 262.4 647.467 253.6 649.2 247.067C651.2 240.267 651.2 157.067 649.2 150.267C647.467 143.733 639.467 134.933 632.667 131.867C627.6 129.6 621.2 129.333 527.6 129.333H428L423.2 124C420.533 121.067 415.067 117.067 410.933 115.067L403.333 111.333L343.333 111.067C288.4 110.667 282.8 110.933 276.4 113.067Z"/>
<path d="M256 269.467L255.5 269.468L255.501 269.917L255.948 269.964L256 269.467ZM426.667 269.467L427.068 269.765L427.165 269.634L427.167 269.471L426.667 269.467ZM341.868 384.298L427.068 269.765L426.266 269.168L341.066 383.702L341.868 384.298ZM427.167 269.471L428.5 129.338L427.5 129.329L426.167 269.462L427.167 269.471ZM255.233 129.334L255.5 269.468L256.5 269.466L256.233 129.332L255.233 129.334ZM426.613 268.969C360 276.098 322.668 275.982 256.052 268.969L255.948 269.964C322.631 276.983 360.034 277.1 426.72 269.964L426.613 268.969ZM276.4 113.067L276.084 112.118L276.076 112.12L276.069 112.123L276.4 113.067ZM257.867 126.133L258.699 126.688L258.706 126.677L257.867 126.133ZM255.733 129.333V130.333H256.269L256.565 129.888L255.733 129.333ZM39.6 140L38.8407 139.349L38.8366 139.354L39.6 140ZM32.2667 202.667L33.2666 202.657L33.2666 202.656L32.2667 202.667ZM35.6 251.6L34.7099 252.056L34.7149 252.066L34.7201 252.075L35.6 251.6ZM53.3333 266.667L53.6081 265.705L53.5999 265.703L53.3333 266.667ZM236.267 303.333L237.115 303.863L237.115 303.863L236.267 303.333ZM93.2 495.333L93.9163 496.031L93.9168 496.031L93.2 495.333ZM72.8 518.267L73.6919 518.719L73.6944 518.714L72.8 518.267ZM80.1333 549.733L79.5254 550.527L79.5302 550.531L80.1333 549.733ZM131.333 563.6L131.125 564.578L131.127 564.578L131.333 563.6ZM208.133 557.6L207.448 556.871L207.443 556.876L208.133 557.6ZM334 394.933L334.855 395.453L334.857 395.448L334 394.933ZM349.333 395.6L348.477 396.117L348.478 396.119L349.333 395.6ZM465.067 547.867L464.335 548.548L464.336 548.55L465.067 547.867ZM487.333 566.8L487.76 565.896L487.751 565.892L487.743 565.888L487.333 566.8ZM551.333 563.6L551.537 564.579L551.541 564.578L551.333 563.6ZM603.733 548.933L603.051 548.202L603.047 548.206L603.733 548.933ZM589.867 495.733L589.149 496.43L589.15 496.431L589.867 495.733ZM490.667 370.933L489.841 371.497L489.841 371.498L490.667 370.933ZM632.667 265.467L633.075 266.379L633.078 266.378L632.667 265.467ZM649.2 247.067L648.241 246.784L648.237 246.797L648.233 246.81L649.2 247.067ZM649.2 150.267L648.233 150.523L648.237 150.536L648.241 150.549L649.2 150.267ZM632.667 131.867L633.078 130.955L633.075 130.954L632.667 131.867ZM428 129.333L427.257 130.002L427.555 130.333H428V129.333ZM423.2 124L423.943 123.331L423.94 123.327L423.2 124ZM410.933 115.067L410.492 115.964L410.498 115.967L410.933 115.067ZM403.333 111.333L403.774 110.436L403.568 110.334L403.338 110.333L403.333 111.333ZM343.333 111.067L343.326 112.067L343.329 112.067L343.333 111.067ZM276.069 112.123C272.174 113.49 268.259 115.568 264.907 117.933C261.565 120.291 258.722 122.977 257.028 125.589L258.706 126.677C260.211 124.356 262.835 121.843 266.06 119.567C269.274 117.299 273.026 115.31 276.731 114.01L276.069 112.123ZM257.035 125.579L254.901 128.779L256.565 129.888L258.699 126.688L257.035 125.579ZM255.733 128.333H155.467V130.333H255.733V128.333ZM155.467 128.333C98.9744 128.333 72.3347 128.199 58.6408 129.471C51.7925 130.107 48.0148 131.105 45.3302 132.757C42.6756 134.389 41.147 136.659 38.8407 139.349L40.3592 140.651C42.853 137.741 44.0744 135.877 46.3781 134.46C48.6519 133.061 52.0408 132.093 58.8258 131.462C72.3986 130.201 98.8922 130.333 155.467 130.333V128.333ZM38.8366 139.354C36.9794 141.549 35.5009 143.542 34.3714 146.086C33.2438 148.626 32.4887 151.658 31.9901 155.917C30.9975 164.396 31.0004 177.974 31.2667 202.677L33.2666 202.656C32.9996 177.893 33.0025 164.471 33.9765 156.15C34.4613 152.009 35.1812 149.191 36.1994 146.897C37.2157 144.608 38.5539 142.784 40.3634 140.646L38.8366 139.354ZM31.2667 202.676C31.4665 223.525 31.5998 234.431 32.0357 240.802C32.254 243.993 32.551 246.097 32.9865 247.769C33.4265 249.458 33.9988 250.667 34.7099 252.056L36.49 251.144C35.8012 249.799 35.3068 248.742 34.9219 247.265C34.5323 245.769 34.246 243.807 34.031 240.665C33.6002 234.369 33.4668 223.541 33.2666 202.657L31.2667 202.676ZM34.7201 252.075C36.5913 255.54 39.5465 258.967 42.8195 261.746C46.0856 264.518 49.7463 266.712 53.0667 267.63L53.5999 265.703C50.6537 264.888 47.2477 262.882 44.1138 260.221C40.9868 257.566 38.2086 254.326 36.4799 251.125L34.7201 252.075ZM53.0586 267.628C53.3296 267.706 53.7357 267.761 54.1972 267.808C54.684 267.858 55.3105 267.906 56.0675 267.952C57.5828 268.044 59.6523 268.131 62.2352 268.212C67.4027 268.375 74.6515 268.517 83.6871 268.633C101.76 268.867 126.998 269 157.067 269V267C127.002 267 101.774 266.867 83.7129 266.633C74.6818 266.517 67.4473 266.375 62.2981 266.213C59.7227 266.132 57.6755 266.046 56.1887 265.955C55.4447 265.91 54.8488 265.865 54.4009 265.819C53.9278 265.77 53.6871 265.728 53.608 265.705L53.0586 267.628ZM157.067 269C191.6 269 216.327 269.1 232.419 269.333C240.467 269.45 246.344 269.6 250.206 269.786C252.14 269.88 253.548 269.982 254.464 270.09C254.928 270.146 255.228 270.198 255.395 270.242C255.487 270.266 255.482 270.273 255.433 270.246C255.408 270.233 255.323 270.184 255.233 270.084C255.136 269.975 255 269.765 255 269.467H257C257 269.135 256.85 268.892 256.723 268.75C256.604 268.617 256.475 268.536 256.392 268.491C256.226 268.4 256.044 268.344 255.9 268.307C255.596 268.227 255.187 268.162 254.7 268.104C253.712 267.987 252.247 267.883 250.302 267.789C246.406 267.6 240.5 267.45 232.448 267.333C216.34 267.1 191.6 267 157.067 267V269ZM255 269.467C255 270.211 254.773 271.167 252.07 275.796C249.413 280.346 244.489 288.263 235.418 302.804L237.115 303.863C246.177 289.337 251.121 281.387 253.797 276.804C256.427 272.3 257 270.855 257 269.467H255ZM235.418 302.804C184.237 384.775 135.213 450.708 92.4832 494.636L93.9168 496.031C136.787 451.958 185.897 385.892 237.115 303.863L235.418 302.804ZM92.4836 494.636C87.4755 499.777 82.6652 504.921 78.9536 509.085C77.0983 511.165 75.5124 513.007 74.3116 514.484C73.1372 515.928 72.2632 517.104 71.9056 517.819L73.6944 518.714C73.9368 518.229 74.6628 517.222 75.8634 515.745C77.0376 514.301 78.6016 512.485 80.4464 510.415C84.1348 506.279 88.9245 501.156 93.9163 496.031L92.4836 494.636ZM71.9081 517.814C69.3722 522.816 69.0897 529.304 70.4927 535.327C71.896 541.351 75.0256 547.082 79.5254 550.527L80.7412 548.939C76.7077 545.851 73.7706 540.583 72.4406 534.873C71.1102 529.162 71.4278 523.184 73.6919 518.719L71.9081 517.814ZM79.5302 550.531C80.9022 551.568 82.0356 552.404 83.6661 553.194C85.2844 553.978 87.3582 554.701 90.6227 555.582C97.1396 557.341 108.61 559.782 131.125 564.578L131.542 562.622C108.99 557.818 97.5937 555.392 91.1439 553.651C87.9251 552.782 85.9906 552.097 84.538 551.394C83.0977 550.696 82.0977 549.965 80.7364 548.936L79.5302 550.531ZM131.127 564.578C157.014 570.035 172.07 572.677 182.81 571.847C193.713 571.004 200.155 566.589 208.823 558.324L207.443 556.876C198.912 565.011 192.887 569.062 182.656 569.853C172.263 570.656 157.519 568.098 131.54 562.621L131.127 564.578ZM208.818 558.329C242.371 526.781 301.758 449.901 334.855 395.453L333.145 394.414C300.108 448.765 240.829 525.486 207.448 556.871L208.818 558.329ZM334.857 395.448C336.648 392.464 338.403 389.748 339.757 387.784C340.435 386.8 341.005 386.015 341.424 385.483C341.635 385.214 341.794 385.027 341.902 384.915C341.958 384.856 341.979 384.84 341.971 384.846C341.968 384.848 341.936 384.874 341.88 384.903C341.84 384.923 341.688 385 341.467 385V383C341.221 383 341.037 383.087 340.961 383.126C340.868 383.174 340.793 383.228 340.742 383.268C340.638 383.349 340.54 383.445 340.456 383.533C340.283 383.714 340.077 383.959 339.851 384.246C339.395 384.826 338.799 385.65 338.11 386.649C336.73 388.652 334.952 391.403 333.143 394.419L334.857 395.448ZM341.467 385C341.235 385 341.076 384.915 341.04 384.896C340.985 384.866 340.953 384.84 340.952 384.839C340.947 384.835 340.971 384.855 341.03 384.918C341.143 385.039 341.309 385.239 341.53 385.524C341.966 386.089 342.562 386.921 343.274 387.964C344.695 390.046 346.552 392.93 348.477 396.117L350.189 395.083C348.248 391.87 346.371 388.954 344.926 386.836C344.205 385.779 343.584 384.911 343.112 384.301C342.878 383.999 342.668 383.742 342.492 383.554C342.407 383.462 342.309 383.364 342.205 383.281C342.154 383.24 342.08 383.184 341.987 383.134C341.913 383.095 341.723 383 341.467 383V385ZM348.478 396.119C378.515 445.646 422.957 504.101 464.335 548.548L465.799 547.185C424.509 502.833 380.151 444.487 350.188 395.081L348.478 396.119ZM464.336 548.55C475.796 560.809 480.185 564.687 486.924 567.712L487.743 565.888C481.415 563.047 477.271 559.458 465.797 547.184L464.336 548.55ZM486.907 567.704C490.449 569.375 493.398 570.645 496.547 571.433C499.709 572.224 503.032 572.519 507.335 572.299C515.881 571.86 528.44 569.371 551.537 564.579L551.13 562.621C527.96 567.428 515.586 569.873 507.232 570.301C503.085 570.514 499.966 570.226 497.032 569.492C494.085 568.755 491.284 567.558 487.76 565.896L486.907 567.704ZM551.541 564.578C573.79 559.849 585.763 557.274 592.751 555.33C596.249 554.357 598.553 553.528 600.294 552.641C602.058 551.742 603.211 550.801 604.419 549.661L603.047 548.206C601.923 549.266 600.925 550.075 599.386 550.859C597.822 551.656 595.667 552.443 592.215 553.403C585.303 555.326 573.41 557.885 551.125 562.622L551.541 564.578ZM604.415 549.665C608.532 545.827 611.282 540.222 612.431 534.445C613.579 528.671 613.152 522.6 610.761 517.819L608.972 518.714C611.115 522.999 611.555 528.595 610.469 534.055C609.385 539.511 606.801 544.707 603.051 548.202L604.415 549.665ZM610.761 517.819C610.404 517.105 609.539 515.938 608.381 514.51C607.197 513.05 605.636 511.233 603.814 509.185C600.169 505.089 595.458 500.044 590.583 495.036L589.15 496.431C594.008 501.422 598.698 506.445 602.32 510.515C604.131 512.55 605.67 514.342 606.828 515.769C608.011 517.229 608.729 518.228 608.972 518.714L610.761 517.819ZM590.584 495.037C559.969 463.49 525.738 420.471 491.492 370.369L489.841 371.498C524.129 421.662 558.431 464.777 589.149 496.43L590.584 495.037ZM491.493 370.369C478.301 351.048 462.307 326.525 449.612 306.416C443.265 296.361 437.745 287.416 433.815 280.78C431.848 277.46 430.285 274.728 429.216 272.726C428.68 271.724 428.276 270.919 428.008 270.321C427.873 270.022 427.78 269.789 427.722 269.619C427.654 269.418 427.667 269.394 427.667 269.467H425.667C425.667 269.748 425.753 270.042 425.829 270.263C425.915 270.516 426.036 270.812 426.183 271.14C426.479 271.799 426.908 272.651 427.452 273.669C428.542 275.709 430.122 278.471 432.094 281.799C436.038 288.459 441.569 297.422 447.921 307.484C460.626 327.608 476.633 352.152 489.841 371.497L491.493 370.369ZM427.667 269.467C427.667 269.976 427.293 270.204 427.276 270.214C427.213 270.254 427.187 270.254 427.259 270.232C427.387 270.194 427.635 270.143 428.045 270.089C428.85 269.981 430.109 269.88 431.888 269.786C435.437 269.6 440.958 269.45 448.831 269.333C464.573 269.1 489.666 269 527.067 269V267C489.667 267 464.56 267.1 448.802 267.333C440.925 267.45 435.372 267.6 431.783 267.789C429.993 267.883 428.668 267.988 427.78 268.106C427.344 268.164 426.969 268.232 426.686 268.316C426.552 268.356 426.373 268.419 426.208 268.523C426.091 268.598 425.667 268.891 425.667 269.467H427.667ZM527.067 269C574.127 269 599.276 268.933 613.292 268.583C627.254 268.234 630.328 267.608 633.075 266.379L632.258 264.554C629.939 265.592 627.279 266.233 613.242 266.584C599.257 266.933 574.139 267 527.067 267V269ZM633.078 266.378C636.643 264.77 640.451 261.701 643.576 258.236C646.694 254.78 649.242 250.807 650.167 247.323L648.233 246.81C647.424 249.86 645.106 253.554 642.091 256.897C639.083 260.232 635.49 263.096 632.256 264.555L633.078 266.378ZM650.159 247.349C650.312 246.831 650.436 246.03 650.545 245.044C650.657 244.038 650.76 242.775 650.854 241.297C651.043 238.341 651.199 234.494 651.325 230.057C651.575 221.183 651.7 209.923 651.7 198.667C651.7 187.411 651.575 176.151 651.325 167.276C651.199 162.839 651.043 158.992 650.854 156.036C650.76 154.558 650.657 153.295 650.545 152.289C650.436 151.304 650.312 150.502 650.159 149.984L648.241 150.549C648.338 150.881 648.448 151.527 648.558 152.51C648.665 153.473 648.765 154.701 648.858 156.163C649.045 159.085 649.201 162.906 649.325 167.332C649.575 176.183 649.7 187.423 649.7 198.667C649.7 209.911 649.575 221.151 649.325 230.001C649.201 234.427 649.045 238.248 648.858 241.17C648.765 242.632 648.665 243.86 648.558 244.823C648.448 245.807 648.338 246.452 648.241 246.784L650.159 247.349ZM650.167 150.01C649.242 146.526 646.694 142.554 643.576 139.097C640.451 135.632 636.643 132.563 633.078 130.955L632.256 132.778C635.49 134.237 639.083 137.101 642.091 140.436C645.106 143.779 647.424 147.474 648.233 150.523L650.167 150.01ZM633.075 130.954C630.328 129.725 627.255 129.099 613.358 128.75C599.409 128.4 574.394 128.333 527.6 128.333V130.333C574.406 130.333 599.391 130.4 613.308 130.75C627.278 131.101 629.938 131.742 632.258 132.779L633.075 130.954ZM527.6 128.333H428V130.333H527.6V128.333ZM428.743 128.664L423.943 123.331L422.457 124.669L427.257 130.002L428.743 128.664ZM423.94 123.327C421.177 120.288 415.603 116.215 411.369 114.166L410.498 115.967C414.531 117.918 419.89 121.845 422.46 124.673L423.94 123.327ZM411.374 114.169L403.774 110.436L402.892 112.231L410.492 115.964L411.374 114.169ZM403.338 110.333L343.338 110.067L343.329 112.067L403.329 112.333L403.338 110.333ZM343.341 110.067C315.882 109.867 300.726 109.833 291.635 110.117C282.529 110.402 279.418 111.007 276.084 112.118L276.716 114.015C279.782 112.993 282.671 112.398 291.698 112.116C300.741 111.834 315.852 111.867 343.326 112.067L343.341 110.067Z" mask="url(#path-1-inside-1_0_1)"/>
</svg>
