<svg xmlns="http://www.w3.org/2000/svg" viewBox="126.36 557.55 733.35 796.9">
  <defs>
    <style>
      .cls-1 {
        fill: red;
      }

      .cls-2 {
        stroke: #1d1d1b;
        stroke-miterlimit: 10;
        stroke-width: 1.42px;
      }

      .cls-3 {
        fill: #1d1d1b;
      }
    </style>
  </defs>
  <g id="pincelada">
    <g>
      <path class="cls-3" d="M810.28,926.82c-4.1-11.23-7.26-22.8-10.91-34.16-53.34-164.43-246.74-239.92-394.66-147.14-143.8,90.9-169.29,284.68-52.26,408.73,78.23,82.92,195.02,108.39,297.56,55.29,53.07-27.18,96.48-71.95,123.8-124.82,2.84-5.28,5.56-10.63,8.83-15.66-1.73,5.78-3.98,11.37-6.65,16.78-27.39,56.12-72.46,103.99-128.39,132.29-71.11,36.17-152.45,36.12-223.75.4-136.9-68.66-195.65-238.26-121.89-374.37,103.76-190.8,367.32-195.26,477.44-8.12,9.08,15.68,16.65,32.3,22.45,49.46,4.65,13.25,8.05,27.21,8.42,41.3h0Z"/>
      <path class="cls-3" d="M844.16,959.61c-2.31-8.29-2.56-16.7-3.94-25.11-25.73-167.38-194.39-276.83-357.54-229.71-162.42,46.83-250.26,226.69-182.42,382.6,59.11,137.16,221.94,217.48,360.44,145.44,20.68-10.4,40.09-23.7,57.61-38.8,16.69-14.46,31.95-30.98,45.26-48.61,6.86-9.3,13.56-18.99,19.42-28.95,4.4-7.23,8.27-14.73,13.12-21.78-2.87,8.05-6.91,15.58-11.3,22.87-5.84,10.05-12.52,19.86-19.39,29.25-13.32,17.84-28.61,34.58-45.35,49.25-17.61,15.36-37.15,28.91-57.98,39.52-140.48,73.96-305.82-6.92-366.2-146.3-79.71-182.94,50.64-388.44,248.62-399.6,136.05-7.7,261.89,86.97,293.28,219.37,2.55,10.26,4.41,20.92,5.73,31.42.91,6.33,1.37,12.75.63,19.15h0Z"/>
      <path class="cls-3" d="M710.51,698.95c-120.39-68.36-267.29-62.57-373.08,30.34-76.06,65.65-119.28,166.83-104.93,267.26,13.45,99.73,82.52,186.29,170.61,232.28,44.08,23.18,93.6,36.91,143.55,36.69,85.3-.54,170.15-39.88,223.4-106.93,40.86-50.37,62.17-114.8,64.12-179.31-.4,66.77-24.27,133.65-67.09,184.97-64.17,77.74-171.26,116.88-270.48,99.42-32.92-5.73-65.15-16.98-94.76-32.47-88.88-46.32-158.68-133.62-172.02-234.3-14.31-101.11,29.31-203.45,106.22-269.21,106.95-93.02,253.59-98.28,374.45-28.75h0Z"/>
      <path class="cls-3" d="M436.79,689.51c-8.81,6.52-18.45,10.93-27.91,16.19-59.19,32.96-109.74,83.82-135.93,146.82-46.08,110.12-18.08,244.75,69.71,326.03,80.61,75.23,197.11,96.44,300.07,58.39,4.08-1.66,9.04-3.44,13.06-5.23,0,0,7.36-3.25,7.36-3.25l1.84-.81c2.72-1.3,6.33-3.14,9.03-4.44,20.27-10.35,39.56-23.15,56.93-37.85,0,0,6.15-5.24,6.15-5.24-19.54,18.48-41.69,34.54-65.63,46.95-26.31,13.91-54.91,23.65-84.19,28.98-89.24,16.43-183.28-9.92-250.02-71.66-46.61-42.51-77.6-100.48-89.46-162.27-12-62.95-4.19-130.16,24.9-187.51,23.82-47.54,61.72-87.35,105.9-116.53,11.32-7.49,23.03-14.36,35.14-20.47,7.29-3.73,14.85-6.84,23.06-8.11h0Z"/>
      <path class="cls-3" d="M589.16,682.77c-177.42-10.32-337.8,128.15-322,311.29,9.35,112.01,83.69,213.44,193.32,244.89,69.74,19.95,147.62,14.88,212.28-19.01,21.73-10.82,42.11-25.06,60.57-40.8,9.29-7.98,18.01-16.62,26.37-25.62-39.05,47.45-94.02,82.22-154.1,96.43-84.53,18.43-178.73.86-245.09-56.44-58.2-49.43-94.15-122.99-99.71-198.94-14.4-185.71,148.17-325.48,328.35-311.8h0Z"/>
      <path class="cls-3" d="M256.12,855.36c-19.71,49.63-23.63,105.39-7.62,156.54,22.93,73.17,84.54,134.21,151.22,169.73,38.89,19.94,82.19,30.92,126.06,33.73-54.9-.55-110.67-15.85-156.93-46.23-46.29-30.2-86.99-70.85-111.43-120.89-5.45-11.08-9.96-23.12-13.62-34.92-1.01-3.89-2.26-8.2-3.21-12.09-.51-2.71-2.05-9.58-2.48-12.25-7.89-45.03-.99-92.16,18.01-133.63h0Z"/>
      <path class="cls-3" d="M225.1,925.47c-3.37,45.32,1.63,91.44,15.82,134.66,20.56,63.35,63.34,118.76,119.01,155.23-47.51-30-85.98-74-108.89-125.35-22.97-51.29-31.13-108.73-25.95-164.54h0Z"/>
      <path class="cls-3" d="M393.29,1194.38c38.96,23.41,82.39,39.71,127.37,46.49,65.82,10.16,134.56-3.1,192.19-36.39-48.18,28.91-104.78,43.46-160.95,40.8-56.14-2.57-111.1-21.15-158.61-50.9h0Z"/>
      <path class="cls-3" d="M334.32,769.06c-48.69,56.51-81.43,129.38-79.49,204.8,1.03,35.38,10.03,71.01,28.67,101.29,24.03,40.3,63.23,69.64,106.1,87.62-20.61-8-40.52-18.67-58.19-32.02-6.72-5.02-13.71-10.99-19.74-16.85-1.32-1.35-3.95-3.9-5.27-5.23-1.59-1.62-5.85-6.47-7.5-8.24-1.79-2.15-5.33-6.6-7.01-8.67-1.29-1.84-5.15-7.13-6.51-9.06-1.4-2.19-4.6-7.36-5.92-9.45-1.07-1.77-2.54-4.67-3.6-6.51-27.89-51.97-29.67-113.85-13.81-169.87,13.36-47.62,39.08-91.34,72.27-127.82h0Z"/>
    </g>
  </g>
  <g id="Círculo">
    <circle class="cls-1" cx="540.23" cy="960.65" r="189.54"/>
  </g>
  <g id="Jiko">
    <g id="Jiko-2" data-name="Jiko">
      <g>
        <path class="cls-2" d="M247,753.11l-1.26-6.42c4.82.28,8.71-1.21,11.4-4.59,3.59-4.53,2.71-9.06-2.68-13.34l-22.52-17.88-11.51,14.5-4.99-3.96,16.01-20.17,27.22,21.61c8.94,7.09,9.9,14.95,3.39,23.15-3.78,4.76-9.3,7.48-15.07,7.1Z"/>
        <path class="cls-2" d="M247.88,683.15l5.09-5.25,36.79,35.62-5.09,5.26-36.79-35.62Z"/>
        <path class="cls-2" d="M302.16,671.44l-1.25,13.29,8.37,10.26-5.67,4.62-32.36-39.69,5.67-4.62,18.07,22.17,3.47-39.73,6.46-5.27-2.39,31.68,35.83,7.13-6.63,5.41-29.57-5.24Z"/>
        <path class="cls-2" d="M330.19,645.82c-7.42-13.03-2.91-28.48,10.76-36.26,13.54-7.71,29.09-3.76,36.55,9.33,7.45,13.1,2.91,28.48-10.63,36.19-13.67,7.78-29.25,3.77-36.67-9.26ZM371.13,622.51c-5.61-9.85-17.11-12.9-26.97-7.29-9.98,5.68-13.23,17.13-7.62,26.98,5.61,9.85,17.11,12.9,27.09,7.22,9.85-5.61,13.1-17.06,7.49-26.91Z"/>
        <path class="cls-2" d="M455.82,565.83l13.4,49.43-5.79,1.57-39.65-28.82,9.99,36.86-7.06,1.91-13.4-49.43,5.79-1.57,39.65,28.82-9.99-36.86,7.06-1.91Z"/>
        <path class="cls-2" d="M481.55,586.74c-1.25-14.95,9.35-27.06,25.02-28.37,15.53-1.29,27.97,8.83,29.22,23.85,1.25,15.02-9.35,27.06-24.87,28.35-15.68,1.3-28.12-8.89-29.37-23.84ZM528.5,582.83c-.94-11.3-10.09-18.91-21.39-17.97-11.45.95-19.21,9.97-18.27,21.27.94,11.3,10.09,18.91,21.54,17.96,11.3-.94,19.07-9.96,18.13-21.26Z"/>
        <path class="cls-2" d="M597.28,590.39l-10.74,7.92-2.08,13.08-7.22-1.15,8.04-50.58,7.23,1.15-4.49,28.25,31.95-23.89,8.24,1.31-25.22,19.33,18.56,31.47-8.45-1.34-15.79-25.55Z"/>
        <path class="cls-2" d="M665.66,617.89l-25.9-8.37-9.3,10.45-7.17-2.32,37.82-41.6,6.89,2.23,6.39,55.89-7.31-2.36-1.42-13.92ZM665.02,611.54l-2.79-27.28-18.23,20.48,21.02,6.8Z"/>
        <path class="cls-2" d="M747.44,614.11l-23.84,45.32-5.31-2.79-9.42-48.1-17.78,33.8-6.47-3.41,23.84-45.32,5.31,2.79,9.41,48.1,17.78-33.8,6.47,3.41Z"/>
        <path class="cls-2" d="M739.25,662.64l5.59-2.93c.97,5.03,4.68,10.94,9.94,14.89,7.07,5.32,12.18,4.86,14.86,1.29,7.52-10-22.02-22.33-10.59-37.53,4.75-6.31,13.7-8,24.46.09,4.8,3.61,8.8,8.63,10.43,13.52l-5.45,3.23c-1.85-4.96-5.09-9.05-8.72-11.78-6.96-5.23-12.14-4.55-14.82-.99-7.52,10,21.98,22.39,10.67,37.41-4.7,6.26-13.78,7.85-24.6-.28-6.26-4.71-10.81-11.43-11.8-16.93Z"/>
        <path class="cls-2" d="M808.79,722.73l-4.52,4.48-26.16-26.41,36.39-36.04,25.44,25.68-4.52,4.48-20.29-20.48-11.18,11.07,18.07,18.24-4.42,4.38-18.07-18.25-11.75,11.64,21.01,21.21Z"/>
        <path class="cls-2" d="M854.47,708.2l4.53,5.74-40.19,31.73-4.53-5.74,40.19-31.73Z"/>
      </g>
    </g>
  </g>
  <g id="Club">
    <g>
      <path class="cls-2" d="M265.47,1183.24c11.97-9.27,27.79-6.9,37.33,5.42,4.84,6.25,6.91,13.34,5.61,20.27l-6.55-.94c.88-5.68-.58-10.66-4.03-15.11-7.08-9.14-18.91-10.8-27.88-3.85-8.97,6.94-10.32,18.82-3.24,27.96,3.45,4.45,7.97,7.06,13.69,7.63l-.73,6.58c-7.03-.48-13.44-4.21-18.32-10.51-9.5-12.26-7.84-28.17,4.13-37.44Z"/>
      <path class="cls-2" d="M323.62,1213.46l5.38,4.96-30.43,32.95,20.37,18.81-4.32,4.68-25.75-23.77,34.74-37.63Z"/>
      <path class="cls-2" d="M341.09,1267.59l15.75-24.49,6.15,3.96-15.59,24.25c-6.13,9.54-4.53,16.65,3.22,21.64,7.75,4.99,14.96,3.53,21.09-6.01l15.59-24.24,5.97,3.84-15.75,24.49c-8.03,12.49-19.1,14.68-30.48,7.36-11.32-7.28-13.98-18.3-5.95-30.79Z"/>
      <path class="cls-2" d="M435.73,1325.06c-3.22,8.17-11.26,10.42-23.31,5.67l-22.73-8.96,18.77-47.64,21.37,8.42c10.96,4.32,15.26,11.36,12.23,19.05-2.04,5.17-6.11,7.73-10.58,8.09,4.79,3.61,6.74,9.02,4.25,15.35ZM429.07,1321.81c2.17-5.51-.94-9.57-8.5-12.55l-15.65-6.17-6.25,15.85,15.65,6.17c7.55,2.98,12.57,2.21,14.75-3.31ZM413.1,1282.33l-6.01,15.24,13.95,5.5c6.94,2.74,11.91,1.71,13.89-3.33,1.98-5.04-.94-9.18-7.88-11.91l-13.95-5.5Z"/>
      <path class="cls-2" d="M485.67,1298.78l21.48,2.11c16.38,1.61,26.5,13.04,25.01,28.19s-13.64,24.38-30.02,22.77l-21.48-2.11,5.01-50.96ZM502.32,1345.48c12.59,1.24,21.43-5.68,22.56-17.11,1.12-11.43-6.2-19.94-18.79-21.18l-13.76-1.35-3.77,38.3,13.76,1.35Z"/>
      <path class="cls-2" d="M589.06,1344.07l.57,6.34-37.02,3.33-4.59-51.01,36-3.23.57,6.34-28.71,2.58,1.41,15.67,25.58-2.3.56,6.19-25.58,2.3,1.48,16.47,29.73-2.67Z"/>
      <path class="cls-2" d="M628.64,1335.27l2.45-6.06c3.89,2.87,7.96,3.74,12.05,2.37,5.48-1.83,7.21-6.11,5.04-12.63l-9.11-27.27-17.56,5.86-2.02-6.04,24.43-8.16,11.01,32.96c3.62,10.83.13,17.93-9.8,21.24-5.76,1.92-11.87,1.19-16.5-2.28Z"/>
      <path class="cls-2" d="M673.58,1303.09l-13.72-25.68,6.45-3.45,13.58,25.43c5.34,10,12.34,12.07,20.47,7.73,8.13-4.34,10.37-11.34,5.02-21.34l-13.58-25.42,6.26-3.34,13.72,25.68c7,13.1,3.53,23.83-8.41,30.21-11.87,6.34-22.79,3.3-29.78-9.8Z"/>
      <path class="cls-2" d="M712.05,1247.67l16.61-13.78c12.67-10.51,27.92-9.66,37.63,2.06,9.71,11.71,7.73,26.85-4.94,37.36l-16.61,13.78-32.69-39.42ZM756.96,1268.7c9.74-8.08,11.04-19.23,3.71-28.07-7.33-8.84-18.53-9.63-28.28-1.55l-10.64,8.83,24.57,29.62,10.64-8.83Z"/>
      <path class="cls-2" d="M776.32,1225.85c-11.74-9.33-13.31-25.34-3.53-37.65,9.69-12.2,25.59-14.33,37.39-4.96,11.8,9.38,13.31,25.34,3.62,37.54-9.78,12.31-25.74,14.4-37.48,5.07ZM805.62,1188.96c-8.88-7.05-20.69-5.6-27.74,3.28-7.14,8.99-5.89,20.82,2.98,27.88,8.88,7.05,20.69,5.6,27.83-3.39,7.06-8.88,5.8-20.71-3.07-27.76Z"/>
    </g>
  </g>
  <g id="Ala2">
    <path d="M477.05,998.56c4.01.27,8.35-.09,15.96,1.33,11.9,2.22,17.86,6.21,23.56,3.21,3.03-1.59,4.71-4.47,5.67-6.79,6.26-.51,12.8,3.55,15.87-5.2,0,0,0,0,0,0,4.63-2.75,11.38,1.24,16.08-2.82,5.19-4.54,14.27-.51,15.61-9.55,7.24,1.26,12.39-3.85,14.46-10.33,4.5-3.35,10.25-5.9,8.2-12.83,4.95-1.01,8.61-5.4,6.54-10.36,4.52.32,8.12-2.81,7.25-7.64,3.16-.73,6.48-1.32,7.7-4.81,19.24-6.38,39.75,1.65,59.31-2.61,2.17-.48,2.95-3.09,1.99-4.88-3.59-6.68-13.6-7.03-20.17-7.1-15.44-.03-30.78-2.93-46.17-4.2,0,0,.02-.01.03-.02.03.02.92-.5.76-.43,17.84-2.93,36.37,2.18,54.34-1.02,5.05-1.2,23.46-4,18.98-11.66-10.7-8.55-26.04-2.68-38.66-3.49-22.36.65-45.51,2.11-67.47,1.7,26.05-2.61,52.34-5.26,78.12-9.93,16.29-2.03,31.1-20.13,3.86-14.66-26.15,7.76-53.04,12.42-80.28,14.13,16.63-6.18,33.36-11.97,48.53-21.37,6.99-4.32,13.83-9.05,19.87-14.63,3.11-2.24-.11-7.48-3.73-5.49-31.44,15.78-64.39,30.21-98.97,37.33,11.05-9.47,25.72-13.37,37.32-22.15,6.69-5.32,28.35-18.49,20.05-28.1-15.96-5.42-54.63,45.78-84.28,44.98,2.75-1.07,8.27-3.72,10.09-9.04.21-.61,1.23-3.79.12-4.58-1.36-.97-5.1,2.15-6.23,3.07-2.67,2.16-11.39,6.42-28.82,14.92-6.83,3.33-17.1,7.37-31.32,9.68-13.68-.99-23.23,1.88-29.36,4.61-19.29,8.61-20.15,22.86-47.51,41.02-3.77,2.5-5.2,3.22-5.73,5.17-4.57,16.78,71.01,52.67,98.43,54.53Z"/>
  </g>
  <g id="Ala1">
    <path d="M310.37,974.49c-15.94.16-29.84,3.92-34.75,5.35-12.67,3.7-22.74,8.68-29.93,12.86-16.93,13.8-36.28,27.71-58.24,40.82-5.82,3.47-11.59,6.75-17.28,9.84-.43.19-9.8,4.36-10.68,4.75-7.52,3.34-11.34,5.03-14.23,5.88-4.65,1.37-7.54,1.65-7.5,2.17.05.77,6.49.97,10.75.93,7.27-.06,13.22-.87,17.27-1.58-6.14,3.66-12.3,8.04-19.48,10.99-6.95,2.86-13.95,5.54-19.76,9.95-.35,1.5-.17,2.58.3,3.39,3.55,6.08,26.01-.71,38.82-5.1-6.47,7.07-12.13,13.36-16.84,18.65-6.1,6.84-9.46,10.69-8.29,12.91,1.26,2.4,7.1,1.62,9.31,1.33,15.51-2.06,30.52-15.79,40.23-26.53-4.33,15.23-16.83,27.36-19.3,43.11-.02,12.48,14.37,10.39,20.98,4.11,9.89-8.64,14.9-21.14,22.69-31.47-1.84,12.04-1.19,24.27-.03,36.39-.35,11.5,1.83,13.78,3.27,14.29,5.45,1.91,16.09-15.92,17.17-17.74,5.74-9.73,8.24-18.75,9.44-24.51,1.26,10.51-4.35,43.04,9.23,45.16,16.13-6.99,15.86-31.39,21.18-46.15,8.97,3.06,15.05-5.45,21-10.58,12.42,8.74,16.1.6,24.31-7.45,5.39,4.27,9.39,1.84,14.26-1.7,6.15,5.13,12.89,1.15,18.11-2.99,13.29,3.7,10.88,2.33,22.51-4.73,8.53,4.97,11.14-1.07,15.12-5.41,7.42,1.91,11.42-5.76,14.92-10.88,6.14,3.16,11.35,1.95,15.08-3.99,2.09,0,6.8-.33,10.35-3.7,0,0,2.41-2.29,3.43-5.67,2.45-8.06-18.5-30.98-52.5-49.96-20.14-11.24-41.86-23.03-70.91-22.74Z"/>
  </g>
  <g id="Torso">
    <path d="M314.78,982.6c-.26-.7-1.83-5.24-5.48-9.61-1.25-1.49-2.58-2.79-3.01-3.19-1.63-1.49-3.19-2.53-6.24-4.91-3.6-2.81-4.82-6.38-8.38-11.51-5.51-7.93-6.46-9.24-8.81-10.69-2.07-1.27-4.51-1.75-9.31-2.66-10.65-2.02-15.77-1.49-15.96-2.66-.22-1.35,6.21-4.08,13.3-5.32,9.68-1.69,13.59.64,23.21,1.08,15.59.71,16.68-4.89,30.26-3.86,10.65.81,9.65,4.23,23.5,7.21,15.34,3.29,19.8-.21,36.51,2.37,8.54,1.32,14.27,3.3,23.53,6.5,42.49,14.69,70.85,38.28,75.95,47.38.43.77,2.27,4.25,5.79,8.04,2.93,3.16,5.82,5.24,7.7,6.46,4.33,2.78,10.68,3.61,13.57,8.24,28.98,10.79,58.64,18.63,89.77,18.33,14.04-1.17,30.89,11.8,7.26,13.77-8.62.44-18.02-5.37-26.17-2.08,7,4.47,33.82,2.58,26.45,15.47-9.54,11.73-21.69-3.7-32.67-3.49,0,0,0,.01,0,.02.31.52.46,1.16.4,1.78,12.79,8.8,37.67,5.96,9.19,21.12-16.97,12.76-26.21-4-41.67-7.39,6.13,4.54,27.71,17.88,13.65,24.55-10.12-1.67-6.76-5.83-16.95,1.86-10.2,3.61-21.79-.06-32.41,1.36-6.99.55-14.87,4.07-21.27-.38-6.66-7.81-7.57-5.44-17.19-5.63-13.48.09-13.61-17.23-15.65-26.82-5.73-8.38-6.81-22.13-19.85-20.76-11.13,1.17-44.71-3.63-71.12-18.04-28.45-15.52-45.89-41.24-47.88-46.55ZM299.48,946.69c1.84,0,3.33-1.49,3.33-3.33s-1.49-3.33-3.33-3.33-3.33,1.49-3.33,3.33,1.49,3.33,3.33,3.33Z"/>
  </g>
</svg>